<?xml version="1.0" encoding="UTF-8" standalone="no"?>
<!DOCTYPE svg PUBLIC "-//W3C//DTD SVG 1.1//EN"
 "http://www.w3.org/Graphics/SVG/1.1/DTD/svg11.dtd">
<!-- Generated by graphviz version 12.0.0 (20240803.0821)
 -->
<!-- Pages: 1 -->
<svg width="636pt" height="264pt"
 viewBox="0.00 0.00 635.50 264.25" xmlns="http://www.w3.org/2000/svg" xmlns:xlink="http://www.w3.org/1999/xlink">
<g id="graph0" class="graph" transform="scale(1 1) rotate(0) translate(4 260.25)">
<polygon fill="white" stroke="none" points="-4,4 -4,-260.25 631.5,-260.25 631.5,4 -4,4"/>
<!-- article_author -->
<g id="node1" class="node">
<title>article_author</title>
<polygon fill="none" stroke="black" points="377,-140.12 377,-169.62 619.5,-169.62 619.5,-140.12 377,-140.12"/>
<text text-anchor="start" x="435.62" y="-150.43" font-family="Helvetica,sans-Serif" font-weight="bold" font-size="16.00">article_author</text>
<polygon fill="none" stroke="black" points="377,-112.88 377,-140.12 619.5,-140.12 619.5,-112.88 377,-112.88"/>
<text text-anchor="start" x="382" y="-122.83" font-family="Helvetica,sans-Serif" text-decoration="underline" font-size="14.00">article_doi</text>
<text text-anchor="start" x="452.5" y="-122.83" font-family="Helvetica,sans-Serif" font-size="14.00"> </text>
<text text-anchor="start" x="457" y="-122.83" font-family="Helvetica,sans-Serif" font-size="14.00"> [VARCHAR]</text>
<text text-anchor="start" x="539.5" y="-122.83" font-family="Helvetica,sans-Serif" font-size="14.00"> NOT NULL</text>
<polygon fill="none" stroke="black" points="377,-85.62 377,-112.88 619.5,-112.88 619.5,-85.62 377,-85.62"/>
<text text-anchor="start" x="382" y="-95.58" font-family="Helvetica,sans-Serif" text-decoration="underline" font-size="14.00">author_id</text>
<text text-anchor="start" x="447.25" y="-95.58" font-family="Helvetica,sans-Serif" font-size="14.00"> </text>
<text text-anchor="start" x="451.75" y="-95.58" font-family="Helvetica,sans-Serif" font-size="14.00"> [INTEGER]</text>
<text text-anchor="start" x="528.25" y="-95.58" font-family="Helvetica,sans-Serif" font-size="14.00"> NOT NULL</text>
</g>
<!-- articles -->
<g id="node2" class="node">
<title>articles</title>
<polygon fill="none" stroke="black" points="8,-222.75 8,-252.25 288,-252.25 288,-222.75 8,-222.75"/>
<text text-anchor="start" x="114.62" y="-233.05" font-family="Helvetica,sans-Serif" font-weight="bold" font-size="16.00">articles</text>
<polygon fill="none" stroke="black" points="8,-195.5 8,-222.75 288,-222.75 288,-195.5 8,-195.5"/>
<text text-anchor="start" x="13" y="-205.45" font-family="Helvetica,sans-Serif" text-decoration="underline" font-size="14.00">DOI</text>
<text text-anchor="start" x="39.25" y="-205.45" font-family="Helvetica,sans-Serif" font-size="14.00"> </text>
<text text-anchor="start" x="43.75" y="-205.45" font-family="Helvetica,sans-Serif" font-size="14.00"> [VARCHAR]</text>
<text text-anchor="start" x="126.25" y="-205.45" font-family="Helvetica,sans-Serif" font-size="14.00"> NOT NULL</text>
<polygon fill="none" stroke="black" points="8,-168.25 8,-195.5 288,-195.5 288,-168.25 8,-168.25"/>
<text text-anchor="start" x="13" y="-178.2" font-family="Helvetica,sans-Serif" font-size="14.00">article_title</text>
<text text-anchor="start" x="88.75" y="-178.2" font-family="Helvetica,sans-Serif" font-size="14.00"> </text>
<text text-anchor="start" x="93.25" y="-178.2" font-family="Helvetica,sans-Serif" font-size="14.00"> [VARCHAR]</text>
<text text-anchor="start" x="175.75" y="-178.2" font-family="Helvetica,sans-Serif" font-size="14.00"> NOT NULL</text>
<polygon fill="none" stroke="black" points="8,-141 8,-168.25 288,-168.25 288,-141 8,-141"/>
<text text-anchor="start" x="13" y="-150.95" font-family="Helvetica,sans-Serif" font-size="14.00">publication_year</text>
<text text-anchor="start" x="127" y="-150.95" font-family="Helvetica,sans-Serif" font-size="14.00"> </text>
<text text-anchor="start" x="131.5" y="-150.95" font-family="Helvetica,sans-Serif" font-size="14.00"> [INTEGER]</text>
<text text-anchor="start" x="208" y="-150.95" font-family="Helvetica,sans-Serif" font-size="14.00"> NOT NULL</text>
</g>
<!-- articles&#45;&#45;article_author -->
<g id="edge1" class="edge">
<title>articles&#45;&#45;article_author</title>
<path fill="none" stroke="#7f7f7f" stroke-dasharray="5,2" d="M295.93,-167.51C320.27,-162.69 345.33,-157.73 369.15,-153.01"/>
<text text-anchor="start" x="339.15" y="-139.71" font-family="Times,serif" font-size="14.00">0..N</text>
<text text-anchor="start" x="295.93" y="-154.21" font-family="Times,serif" font-size="14.00">1</text>
</g>
<!-- authors -->
<g id="node3" class="node">
<title>authors</title>
<polygon fill="none" stroke="black" points="32.38,-85.75 32.38,-115.25 263.62,-115.25 263.62,-85.75 32.38,-85.75"/>
<text text-anchor="start" x="113.12" y="-96.05" font-family="Helvetica,sans-Serif" font-weight="bold" font-size="16.00">authors</text>
<polygon fill="none" stroke="black" points="32.38,-58.5 32.38,-85.75 263.62,-85.75 263.62,-58.5 32.38,-58.5"/>
<text text-anchor="start" x="37.38" y="-68.45" font-family="Helvetica,sans-Serif" text-decoration="underline" font-size="14.00">author_id</text>
<text text-anchor="start" x="102.62" y="-68.45" font-family="Helvetica,sans-Serif" font-size="14.00"> </text>
<text text-anchor="start" x="107.12" y="-68.45" font-family="Helvetica,sans-Serif" font-size="14.00"> [INTEGER]</text>
<text text-anchor="start" x="183.62" y="-68.45" font-family="Helvetica,sans-Serif" font-size="14.00"> NOT NULL</text>
<polygon fill="none" stroke="black" points="32.38,-31.25 32.38,-58.5 263.62,-58.5 263.62,-31.25 32.38,-31.25"/>
<text text-anchor="start" x="37.38" y="-41.2" font-family="Helvetica,sans-Serif" font-size="14.00">affiliation</text>
<text text-anchor="start" x="101.12" y="-41.2" font-family="Helvetica,sans-Serif" font-size="14.00"> </text>
<text text-anchor="start" x="105.62" y="-41.2" font-family="Helvetica,sans-Serif" font-size="14.00"> [VARCHAR]</text>
<polygon fill="none" stroke="black" points="32.38,-4 32.38,-31.25 263.62,-31.25 263.62,-4 32.38,-4"/>
<text text-anchor="start" x="37.38" y="-13.95" font-family="Helvetica,sans-Serif" font-size="14.00">name</text>
<text text-anchor="start" x="76.38" y="-13.95" font-family="Helvetica,sans-Serif" font-size="14.00"> </text>
<text text-anchor="start" x="80.88" y="-13.95" font-family="Helvetica,sans-Serif" font-size="14.00"> [VARCHAR]</text>
<text text-anchor="start" x="163.38" y="-13.95" font-family="Helvetica,sans-Serif" font-size="14.00"> NOT NULL</text>
</g>
<!-- authors&#45;&#45;article_author -->
<g id="edge2" class="edge">
<title>authors&#45;&#45;article_author</title>
<path fill="none" stroke="#7f7f7f" stroke-dasharray="5,2" d="M271.29,-83.5C302.94,-89.68 337.11,-96.36 369.05,-102.59"/>
<text text-anchor="start" x="339.05" y="-89.29" font-family="Times,serif" font-size="14.00">0..N</text>
<text text-anchor="start" x="271.29" y="-70.2" font-family="Times,serif" font-size="14.00">1</text>
</g>
</g>
</svg>
